<?xml version="1.0" standalone="no"?><!DOCTYPE svg PUBLIC "-//W3C//DTD SVG 1.1//EN" "http://www.w3.org/Graphics/SVG/1.1/DTD/svg11.dtd"><svg t="1602579453213" class="icon" viewBox="0 0 1024 1024" version="1.1" xmlns="http://www.w3.org/2000/svg" p-id="3178" data-spm-anchor-id="a313x.7781069.0.i5" xmlns:xlink="http://www.w3.org/1999/xlink" width="200" height="200"><defs><style type="text/css"></style></defs><path d="M883.95 574.216v395.978H14.892V339.886l53.78-75.69h237.374l57.432 80.76h276.23v-14.892H371.162l-57.434-80.76H60.984L0 335.134v649.95h898.842V574.216z" fill="#ffffff" p-id="3179" data-spm-anchor-id="a313x.7781069.0.i0" class="selected"></path><path d="M863.3 552.344c-32.464-43.582-45.716-51.078-50.382-51.624-5.014 0.546-18.266 7.992-50.73 51.624l-10.87 14.692-17.224-6.056a241.078 241.078 0 0 1-27.598-11.664l-15.934-8.042 2.73-19.16c7.198-49.986 4.368-65.968 1.092-70.238-0.05-0.05-5.112-3.724-24.72-3.724-14.346 0-30.478 1.986-42.292 3.426l-21.692 2.582-7.644-16.082c-4.716-9.878-8.488-19.458-11.566-29.286l-5.112-16.232 13.352-10.572c1.836-1.49 3.872-3.078 6.056-4.766 3.97-3.128 10.97-8.638 18.266-14.892h-264.52l-57.43-80.76H77.632l-45.368 63.884v607.368h834.312v-396.06l-3.276-4.418zM434.512 878.91H87.644V556.514h346.868v322.396z m380.896 0h-346.82v-231.46h346.82v231.46z" fill="#FFD452" p-id="3180"></path><path d="M1020.004 395.582a1245.582 1245.582 0 0 0-6.066-4.782c-17.816-13.972-50.98-39.986-50.98-57.642 0-16.12 29.164-40.3 46.588-54.748a722.77 722.77 0 0 0 8.344-6.984l3.874-3.316-1.692-4.808c-3.29-9.366-7.512-18.938-12.55-28.454l-2.262-4.276-4.826 0.33c-4.16 0.284-8.948 0.744-14.116 1.242-10.912 1.052-23.28 2.244-34.862 2.244-16.666 0-27.614-2.514-32.556-7.49-10.12-10.122-7.416-43.222-5.628-65.126 0.448-5.504 0.86-10.584 1.072-14.922l0.238-4.878-4.38-2.16a235.886 235.886 0 0 0-30.334-12.376l-4.58-1.508-3.25 3.562c-3.112 3.412-6.644 7.6-10.472 12.146-13.866 16.452-34.822 41.314-48.818 41.314-14.104 0-35.098-24.898-48.99-41.376-3.812-4.52-7.33-8.686-10.426-12.084l-3.25-3.562-4.58 1.508a235.104 235.104 0 0 0-30.334 12.376l-4.382 2.16 0.238 4.878c0.21 4.346 0.626 9.434 1.076 14.948 1.796 21.91 4.506 55.02-5.61 65.21-4.94 4.938-15.9 7.44-32.578 7.44-11.852 0-24.456-1.24-35.576-2.336-4.836-0.478-9.316-0.918-13.228-1.208l-4.85-0.356-2.278 4.298c-5.036 9.514-9.262 19.086-12.552 28.458l-1.692 4.808 3.874 3.316c2.482 2.124 5.308 4.466 8.344 6.984 17.424 14.448 46.588 38.626 46.588 54.748 0 17.656-33.168 43.67-50.988 57.648-2.154 1.69-4.19 3.284-6.06 4.774l-4 3.182 1.532 4.874c2.844 9.046 6.34 17.876 10.688 26.996l2.302 4.822 9.106-1.098c12.276-1.498 29.086-3.546 44.564-3.546 23.296 0 32.87 4.682 36.8 8.608 14.118 14.118 7.346 61.864 4.092 84.808l-1.008 7.124 4.746 2.412a206.92 206.92 0 0 0 25.524 10.824l5.166 1.8 3.262-4.394c13.028-17.542 43.538-58.63 64.48-58.63 20.946 0 51.456 41.086 64.484 58.63l3.26 4.394 5.168-1.8a207.566 207.566 0 0 0 25.524-10.824l4.772-2.422-0.9-6.144c-3.398-23.198-10.468-71.466 3.846-85.778 3.928-3.926 13.502-8.608 36.806-8.608 15.442 0 32.262 2.04 44.546 3.534l9.23 1.108 2.3-4.824c4.35-9.124 7.846-17.954 10.686-26.992l1.532-4.874-3.998-3.182z m-19.43 23.804c-12.512-1.518-29.15-3.464-44.868-3.464-23.124 0-38.608 4.242-47.336 12.972-17.374 17.37-13.956 57.012-8.706 93.928a192.632 192.632 0 0 1-13.806 5.848c-23.956-31.82-49.228-60.196-73.114-60.196-23.884 0-49.156 28.374-73.112 60.196a192.914 192.914 0 0 1-13.82-5.854c4.146-29.458 9.822-75.306-8.8-93.924-8.728-8.73-24.21-12.972-47.328-12.972-15.704 0-32.276 1.942-44.768 3.462a188.554 188.554 0 0 1-6.086-15.362l1.91-1.498c23.922-18.764 56.688-44.46 56.688-69.364 0-23.118-30.04-48.024-51.976-66.212a1488.46 1488.46 0 0 1-4.214-3.502 195.002 195.002 0 0 1 7.658-17.282c2.506 0.228 5.18 0.492 7.974 0.766 11.462 1.13 24.452 2.41 37.036 2.41 21.358 0 35.054-3.75 43.126-11.822 14.972-15.076 12.162-49.376 9.906-76.934-0.276-3.372-0.54-6.578-0.746-9.542a221.366 221.366 0 0 1 19.354-7.888c2.13 2.454 4.414 5.166 6.826 8.022 17.53 20.79 39.35 46.666 60.376 46.666 20.922 0 42.704-25.844 60.206-46.61 2.424-2.876 4.726-5.608 6.87-8.078a221.734 221.734 0 0 1 19.354 7.888c-0.208 2.96-0.47 6.158-0.744 9.52-2.252 27.568-5.052 61.874 9.922 76.85 8.042 8.098 21.738 11.868 43.104 11.868 12.298 0 25.044-1.228 36.29-2.312 3.106-0.298 6.074-0.586 8.842-0.826a195.142 195.142 0 0 1 7.668 17.306 1566.5 1566.5 0 0 1-4.218 3.502c-21.934 18.188-51.974 43.094-51.974 66.212 0 24.902 32.762 50.598 56.682 69.36l1.916 1.502a189.984 189.984 0 0 1-6.092 15.364z" fill="#ffffff" p-id="3181" data-spm-anchor-id="a313x.7781069.0.i6" class="selected"></path><path d="M930.708 333.144c0-24.472 18.912-45.618 44.078-67.558-7.594 0.596-15.486 1.042-23.33 1.042-16.53 0-40.306-1.738-55.346-16.926-18.466-18.466-17.92-51.276-15.784-80.264-18.764 21.94-41.398 45.766-67.558 45.766-26.258 0-48.942-23.826-67.706-45.766 2.134 28.938 2.68 61.8-15.784 80.364-15.14 15.14-38.866 16.926-55.346 16.926-7.744 0-15.636-0.446-23.132-1.092 25.116 21.94 43.98 43.036 43.98 67.508 0 25.066-20.65 47.504-42.242 66.018 5.658-0.398 11.416-0.596 17.126-0.596 28.392 0 47.304 5.708 59.614 18.018 16.926 16.926 19.558 44.822 17.422 75.45 19.904-22.784 41.994-40.952 66.068-40.952 23.976 0 46.014 18.118 65.918 40.852-2.234-30.578 0.446-58.374 17.422-75.3 12.31-12.36 31.222-18.068 59.614-18.068 5.758 0 11.566 0.198 17.224 0.596-21.588-18.516-42.238-40.952-42.238-66.018z m-117.99 89.298c-49.488 0-89.746-40.256-89.746-89.746 0-49.488 40.256-89.746 89.746-89.746 49.49 0 89.746 40.256 89.746 89.746 0 49.49-40.256 89.746-89.746 89.746z" fill="#71CCE0" p-id="3182"></path><path d="M812.702 260.336c-39.902 0-72.366 32.462-72.366 72.364 0 39.904 32.464 72.368 72.366 72.368 39.904 0 72.368-32.464 72.368-72.368 0-39.9-32.464-72.364-72.368-72.364z m0 129.842c-31.69 0-57.474-25.784-57.474-57.476 0-31.69 25.784-57.474 57.474-57.474 31.692 0 57.476 25.784 57.476 57.474 0 31.692-25.782 57.476-57.476 57.476z" fill="#4A555F" p-id="3183"></path><path d="M812.702 260.336c-39.902 0-72.366 32.462-72.366 72.364 0 39.904 32.464 72.368 72.366 72.368 39.904 0 72.368-32.464 72.368-72.368 0-39.9-32.464-72.364-72.368-72.364z m0 129.842c-31.69 0-57.474-25.784-57.474-57.476 0-31.69 25.784-57.474 57.474-57.474 31.692 0 57.476 25.784 57.476 57.474 0 31.692-25.782 57.476-57.476 57.476zM636.54 95.21l8.794 12.016a284.89 284.89 0 0 1 11.922-8.26l-8.164-12.454a300.092 300.092 0 0 0-12.552 8.698z m25.548-16.728l7.5 12.866c4.144-2.416 8.42-4.76 12.708-6.968l-6.816-13.238a290.416 290.416 0 0 0-13.392 7.34z m55.608-25.024l4.654 14.146a278.572 278.572 0 0 1 13.874-4.166l-3.908-14.368c-4.88 1.324-9.8 2.8-14.62 4.388z m-28.458 11.054l6.112 13.578a280.694 280.694 0 0 1 13.366-5.602l-5.4-13.878a298.528 298.528 0 0 0-14.078 5.902zM541.8 212.95l13.632 5.996a275.312 275.312 0 0 1 6.196-13.122l-13.296-6.708a291.632 291.632 0 0 0-6.532 13.834z m49.524-76.784l11.09 9.938a283.648 283.648 0 0 1 9.956-10.554l-10.562-10.494a299.088 299.088 0 0 0-10.484 11.11z m-35.74 49.486l12.918 7.402a280.364 280.364 0 0 1 7.542-12.392l-12.516-8.07a294.352 294.352 0 0 0-7.944 13.06z m16.574-25.686l12.07 8.72a280.064 280.064 0 0 1 8.798-11.532l-11.594-9.34a288.06 288.06 0 0 0-9.274 12.152z m40.712-45.462l9.996 11.038c3.556-3.218 7.254-6.4 10.998-9.452l-9.408-11.542a296.58 296.58 0 0 0-11.586 9.956zM865.46 59.646a280.04 280.04 0 0 1 14.124 3.308l3.776-14.406a293.402 293.402 0 0 0-14.884-3.482l-3.016 14.58z m28.06 7.346c4.59 1.462 9.2 3.064 13.698 4.762l5.26-13.932a290.484 290.484 0 0 0-14.44-5.02l-4.518 14.19z m27.12 10.242c4.406 1.934 8.82 4.014 13.116 6.178l6.7-13.302a294.152 294.152 0 0 0-13.83-6.512l-5.986 13.636z m33.28 0.11l-7.388 12.928a278.394 278.394 0 0 1 12.394 7.52l8.056-12.52a284.814 284.814 0 0 0-13.062-7.928zM747.146 45.454l3.142 14.556a283.9 283.9 0 0 1 14.23-2.686l-2.38-14.698c-5.022 0.814-10.062 1.764-14.992 2.828z m30.136-4.864l1.6 14.804c4.76-0.514 9.622-0.908 14.446-1.176l-0.82-14.868c-5.082 0.28-10.206 0.696-15.226 1.24z m60.994-0.164l-1.492 14.818 1.824 0.188c4.222 0.456 8.41 1.004 12.564 1.644l2.268-14.716a295.184 295.184 0 0 0-13.234-1.73l-1.93-0.204z m-30.48-1.51v14.892h0.698c4.584 0 9.232 0.116 13.82 0.342l0.736-14.872c-4.834-0.24-9.728-0.362-14.556-0.362h-0.698zM105.022 755.726v105.802h312.102v-105.802H105.022z m297.212 90.91H119.914v-76.02h282.32v76.02z" fill="#ffffff" p-id="3184" data-spm-anchor-id="a313x.7781069.0.i1" class="selected"></path><path d="M105.022 664.812v105.806h312.102v-105.806H105.022z m297.212 90.914H119.914v-76.022h282.32v76.022zM485.946 755.726v105.802h312.102v-105.802H485.946z m297.212 90.91h-282.32v-76.02h282.32v76.02z" fill="#ffffff" p-id="3185" data-spm-anchor-id="a313x.7781069.0.i2" class="selected"></path><path d="M485.946 664.812v105.806h312.102v-105.806H485.946z m297.212 90.914h-282.32v-76.022h282.32v76.022zM105.022 573.9v105.802h312.102V573.9H105.022z m297.212 90.912H119.914v-76.02h282.32v76.02zM579.906 220.806l-41.064 14.886-16.412-41.084-13.83 5.52 21.758 54.478 54.624-19.8z" fill="#ffffff" p-id="3186" data-spm-anchor-id="a313x.7781069.0.i3" class="selected"></path><path d="M143.766 604.248v45.108h45.108v-45.108H143.766z m30.216 30.216h-15.326v-15.326h15.326v15.326zM143.766 695.16v45.11h45.108V695.16H143.766z m30.216 30.218h-15.326v-15.328h15.326v15.328zM143.766 786.074v45.108h45.108v-45.108H143.766z m30.216 30.216h-15.326v-15.326h15.326v15.326zM523.216 695.16v45.11h45.11V695.16h-45.11z m30.218 30.218h-15.328v-15.328h15.328v15.328zM523.216 786.074v45.108h45.11v-45.108h-45.11z m30.218 30.216h-15.328v-15.326h15.328v15.326zM263.204 619.358h14.064v14.892h-14.064zM229.63 619.358h14.062v14.892h-14.062zM301.082 619.358h68.47v14.892h-68.47zM263.204 710.268h14.064v14.892h-14.064zM229.63 710.268h14.062v14.892h-14.062zM301.082 710.268h68.47v14.892h-68.47zM263.204 801.182h14.064v14.892h-14.064zM229.63 801.182h14.062v14.892h-14.062zM301.082 801.182h68.47v14.892h-68.47zM642.938 710.268h14.062v14.892h-14.062zM609.362 710.268h14.064v14.892h-14.064zM680.816 710.268h68.468v14.892h-68.468zM642.938 801.182h14.062v14.892h-14.062zM609.362 801.182h14.064v14.892h-14.064zM680.816 801.182h68.468v14.892h-68.468z" fill="#ffffff" p-id="3187" data-spm-anchor-id="a313x.7781069.0.i4" class="selected"></path></svg>