<?xml version="1.0" standalone="no"?><!DOCTYPE svg PUBLIC "-//W3C//DTD SVG 1.1//EN" "http://www.w3.org/Graphics/SVG/1.1/DTD/svg11.dtd"><svg t="1602580972579" class="icon" viewBox="0 0 1024 1024" version="1.1" xmlns="http://www.w3.org/2000/svg" p-id="3568" xmlns:xlink="http://www.w3.org/1999/xlink" width="200" height="200"><defs><style type="text/css"></style></defs><path d="M256 85.333333h341.333333l256 256v512a85.333333 85.333333 0 0 1-85.333333 85.333334H256a85.333333 85.333333 0 0 1-85.333333-85.333334V170.666667a85.333333 85.333333 0 0 1 85.333333-85.333334m298.666667 64V384h234.666666L554.666667 149.333333m170.666666 320h-170.666666v85.333334h42.666666l-85.333333 71.253333L426.666667 554.666667h42.666666v-85.333334H298.666667v85.333334h42.666666l128 106.666666L341.333333 768H298.666667v85.333333h170.666666v-85.333333h-42.666666l85.333333-71.253333L597.333333 768h-42.666666v85.333333h170.666666v-85.333333h-42.666666l-128-106.666667 128-106.666666h42.666666v-85.333334z" fill="#8BC34A" p-id="3569"></path></svg>